<svg xmlns="http://www.w3.org/2000/svg" width="900" height="520" viewBox="0 0 900 520" role="img" aria-label="活动会场海报">
  <defs>
    <linearGradient id="g" x1="0" y1="0" x2="1" y2="1"><stop stop-color="#2f2a8f"/><stop offset="0.55" stop-color="#5b4bff"/><stop offset="1" stop-color="#14b8a6"/></linearGradient>
    <linearGradient id="glow" x1="0" y1="0" x2="1" y2="0"><stop stop-color="#ff7ab6"/><stop offset="1" stop-color="#8ef7e6"/></linearGradient>
    <filter id="blur"><feGaussianBlur stdDeviation="35"/></filter>
  </defs>
  <rect width="900" height="520" fill="url(#g)"/>
  <circle cx="110" cy="92" r="110" fill="#ff7ab6" opacity="0.25" filter="url(#blur)"/>
  <circle cx="800" cy="430" r="170" fill="#14b8a6" opacity="0.32" filter="url(#blur)"/>
  <g opacity="0.24" stroke="#fff" stroke-width="1.5">
    <path d="M0 405 C155 310 245 363 390 260 S650 163 900 215" fill="none"/>
    <path d="M0 430 C180 336 280 395 430 290 S670 195 900 255" fill="none"/>
    <path d="M0 455 C190 368 305 426 470 330 S690 225 900 303" fill="none"/>
  </g>
  <g transform="translate(92 88)">
    <rect x="0" y="0" width="230" height="300" rx="36" fill="#fff" opacity="0.13"/>
    <rect x="278" y="54" width="230" height="300" rx="36" fill="#fff" opacity="0.11"/>
    <rect x="556" y="10" width="230" height="300" rx="36" fill="#fff" opacity="0.13"/>
    <path d="M62 238 C105 176 148 178 190 236" stroke="url(#glow)" stroke-width="16" stroke-linecap="round" fill="none"/>
    <circle cx="116" cy="118" r="46" fill="#fff" opacity="0.32"/>
    <path d="M334 260 C370 196 425 188 462 254" stroke="url(#glow)" stroke-width="16" stroke-linecap="round" fill="none"/>
    <rect x="344" y="108" width="96" height="96" rx="30" fill="#fff" opacity="0.26"/>
    <path d="M615 242 C654 174 715 178 748 238" stroke="url(#glow)" stroke-width="16" stroke-linecap="round" fill="none"/>
    <path d="M658 102 l65 38 -65 38 -65 -38z" fill="#fff" opacity="0.26"/>
  </g>
  <text x="64" y="72" fill="#fff" font-family="Inter, Arial, sans-serif" font-size="24" font-weight="900" letter-spacing="4">WELCOME ME 2026</text>
  <text x="64" y="448" fill="#fff" font-family="Inter, Arial, sans-serif" font-size="38" font-weight="900">跨界设计与人性体验峰会</text>
  <text x="66" y="486" fill="#fff" opacity="0.82" font-family="Inter, Arial, sans-serif" font-size="20" font-weight="700">上海当代艺术创意园 · A1馆 · 09:30-18:00</text>
</svg>
