<svg xmlns="http://www.w3.org/2000/svg" width="720" height="480" viewBox="0 0 720 480" role="img" aria-label="生态气味装置展品">
  <defs><linearGradient id="bg" x1="0" y1="0" x2="1" y2="1"><stop stop-color="#e9fff6"/><stop offset="1" stop-color="#f8f1ff"/></linearGradient><linearGradient id="jar" x1="0" y1="0" x2="0" y2="1"><stop stop-color="#f6d8b8"/><stop offset="1" stop-color="#b88755"/></linearGradient></defs>
  <rect width="720" height="480" rx="42" fill="url(#bg)"/>
  <path d="M70 370 C190 285 255 315 360 236 C490 139 590 192 660 108" stroke="#14b8a6" stroke-width="18" stroke-opacity="0.18" fill="none" stroke-linecap="round"/>
  <g transform="translate(180 90)">
    <ellipse cx="180" cy="272" rx="170" ry="38" fill="#1f2333" opacity="0.10"/>
    <path d="M104 90 C106 52 255 52 257 90 L292 280 C298 330 63 330 68 280 Z" fill="url(#jar)"/>
    <path d="M115 90 C130 116 232 116 246 90" fill="none" stroke="#fff" stroke-width="12" stroke-opacity="0.45"/>
    <ellipse cx="180" cy="90" rx="76" ry="24" fill="#9b6b45" opacity="0.55"/>
    <path d="M98 160 C148 140 203 152 265 126" fill="none" stroke="#fff" stroke-width="7" stroke-linecap="round" opacity="0.55"/>
    <path d="M115 226 C166 200 226 218 275 190" fill="none" stroke="#fff" stroke-width="6" stroke-linecap="round" opacity="0.42"/>
    <circle cx="115" cy="300" r="16" fill="#14b8a6" opacity="0.85"/>
    <circle cx="248" cy="292" r="18" fill="#6d5dfc" opacity="0.75"/>
  </g>
  <g fill="#14b8a6" opacity="0.7"><path d="M110 178 C128 138 170 144 174 178 C140 166 126 166 110 178Z"/><path d="M540 265 C562 213 614 221 619 266 C580 248 560 250 540 265Z"/></g>
  <text x="48" y="64" font-family="Inter, Arial, sans-serif" font-size="26" font-weight="900" fill="#1f2333">气味地理学</text>
  <text x="48" y="98" font-family="Inter, Arial, sans-serif" font-size="15" font-weight="700" fill="#73788a">水系采样 · 微气候陶罐 · 生态体验</text>
</svg>
