<svg xmlns="http://www.w3.org/2000/svg" width="720" height="480" viewBox="0 0 720 480" role="img" aria-label="算法森林光纤展品">
  <defs><linearGradient id="bg" x1="0" y1="0" x2="1" y2="1"><stop stop-color="#ecfeff"/><stop offset="1" stop-color="#f5f3ff"/></linearGradient><linearGradient id="fiber" x1="0" y1="1" x2="1" y2="0"><stop stop-color="#14b8a6"/><stop offset="0.45" stop-color="#5b4bff"/><stop offset="1" stop-color="#ff6fae"/></linearGradient></defs>
  <rect width="720" height="480" rx="42" fill="url(#bg)"/>
  <rect x="86" y="330" width="548" height="62" rx="31" fill="#8b5e3c" opacity="0.25"/>
  <g stroke="url(#fiber)" stroke-width="8" fill="none" stroke-linecap="round">
    <path d="M160 330 C170 260 150 205 120 142"/><path d="M230 330 C238 245 264 205 304 130"/><path d="M314 330 C322 245 360 205 385 108"/><path d="M404 330 C396 245 430 200 474 138"/><path d="M520 330 C520 250 570 210 606 150"/>
  </g>
  <g fill="#fff" opacity="0.95"><circle cx="120" cy="142" r="22"/><circle cx="304" cy="130" r="24"/><circle cx="385" cy="108" r="20"/><circle cx="474" cy="138" r="22"/><circle cx="606" cy="150" r="24"/></g>
  <g fill="#14b8a6" opacity="0.35"><circle cx="180" cy="360" r="22"/><circle cx="278" cy="350" r="16"/><circle cx="460" cy="356" r="20"/><circle cx="550" cy="354" r="14"/></g>
  <path d="M80 402 C214 384 335 438 490 398 C585 374 642 392 694 406" stroke="#1f2333" stroke-width="8" stroke-opacity="0.08" fill="none" stroke-linecap="round"/>
  <text x="48" y="64" font-family="Inter, Arial, sans-serif" font-size="26" font-weight="900" fill="#1f2333">算法森林</text>
  <text x="48" y="98" font-family="Inter, Arial, sans-serif" font-size="15" font-weight="700" fill="#73788a">微生物电信号 · 光纤映射 · 低碳装置</text>
</svg>
