<svg xmlns="http://www.w3.org/2000/svg" width="900" height="620" viewBox="0 0 900 620" role="img" aria-label="欢迎ME活动主视觉">
  <defs>
    <linearGradient id="bg" x1="0" y1="0" x2="1" y2="1">
      <stop offset="0" stop-color="#f7f2ff"/>
      <stop offset="0.46" stop-color="#eef7ff"/>
      <stop offset="1" stop-color="#e7fff7"/>
    </linearGradient>
    <linearGradient id="purple" x1="0" y1="0" x2="1" y2="1">
      <stop stop-color="#6d5dfc"/><stop offset="1" stop-color="#14b8a6"/>
    </linearGradient>
    <linearGradient id="pink" x1="0" y1="0" x2="1" y2="1">
      <stop stop-color="#ff6fae"/><stop offset="1" stop-color="#9b5cff"/>
    </linearGradient>
    <filter id="shadow" x="-20%" y="-20%" width="140%" height="140%">
      <feDropShadow dx="0" dy="22" stdDeviation="25" flood-color="#4d3fd4" flood-opacity="0.16"/>
    </filter>
  </defs>
  <rect width="900" height="620" rx="52" fill="url(#bg)"/>
  <circle cx="135" cy="120" r="85" fill="#ff6fae" opacity="0.12"/>
  <circle cx="748" cy="158" r="112" fill="#14b8a6" opacity="0.16"/>
  <circle cx="710" cy="515" r="156" fill="#6d5dfc" opacity="0.11"/>
  <path d="M84 470 C220 355 334 386 454 288 C596 171 700 214 815 92" fill="none" stroke="#6d5dfc" stroke-opacity="0.18" stroke-width="18" stroke-linecap="round"/>
  <path d="M97 497 C239 398 362 422 494 326 C635 224 709 241 826 146" fill="none" stroke="#14b8a6" stroke-opacity="0.18" stroke-width="10" stroke-linecap="round"/>
  <g filter="url(#shadow)">
    <rect x="116" y="92" width="278" height="364" rx="38" fill="#ffffff" opacity="0.92"/>
    <rect x="142" y="126" width="226" height="134" rx="28" fill="url(#purple)" opacity="0.94"/>
    <circle cx="190" cy="174" r="18" fill="#fff" opacity="0.86"/>
    <path d="M161 235 C198 198 225 205 252 226 C286 252 310 203 353 233" fill="none" stroke="#fff" stroke-width="10" stroke-linecap="round" opacity="0.8"/>
    <rect x="151" y="292" width="170" height="14" rx="7" fill="#1f2333" opacity="0.16"/>
    <rect x="151" y="324" width="205" height="12" rx="6" fill="#1f2333" opacity="0.1"/>
    <rect x="151" y="352" width="132" height="12" rx="6" fill="#1f2333" opacity="0.1"/>
    <rect x="151" y="390" width="88" height="30" rx="15" fill="#f2f0ff"/>
    <rect x="252" y="390" width="88" height="30" rx="15" fill="#e7fff7"/>
  </g>
  <g filter="url(#shadow)">
    <rect x="449" y="152" width="305" height="356" rx="42" fill="#ffffff" opacity="0.94"/>
    <circle cx="602" cy="258" r="94" fill="url(#pink)" opacity="0.96"/>
    <circle cx="602" cy="258" r="54" fill="#ffffff" opacity="0.22"/>
    <path d="M534 364 H670" stroke="#1f2333" stroke-opacity="0.16" stroke-width="16" stroke-linecap="round"/>
    <path d="M506 404 H704" stroke="#1f2333" stroke-opacity="0.10" stroke-width="13" stroke-linecap="round"/>
    <path d="M544 438 H664" stroke="#1f2333" stroke-opacity="0.10" stroke-width="13" stroke-linecap="round"/>
  </g>
  <g>
    <rect x="555" y="68" width="214" height="70" rx="35" fill="#fff" opacity="0.9"/>
    <circle cx="600" cy="103" r="17" fill="#14b8a6" opacity="0.9"/>
    <circle cx="650" cy="103" r="17" fill="#6d5dfc" opacity="0.9"/>
    <circle cx="700" cy="103" r="17" fill="#ff6fae" opacity="0.9"/>
  </g>
  <text x="116" y="532" font-family="Inter, Arial, sans-serif" font-size="44" font-weight="800" fill="#1f2333">Welcome ME</text>
  <text x="119" y="570" font-family="Inter, Arial, sans-serif" font-size="22" font-weight="700" fill="#6b7280">设计共创 · 同频连接 · 现场体验</text>
</svg>
