<svg width="1200" height="720" viewBox="0 0 1200 720" fill="none" xmlns="http://www.w3.org/2000/svg">
  <defs>
    <linearGradient id="bg" x1="0" y1="0" x2="1200" y2="720" gradientUnits="userSpaceOnUse">
      <stop stop-color="#F4F0FF"/>
      <stop offset="0.45" stop-color="#EEF9FF"/>
      <stop offset="1" stop-color="#FFF1F7"/>
    </linearGradient>
    <linearGradient id="a" x1="195" y1="120" x2="980" y2="650" gradientUnits="userSpaceOnUse">
      <stop stop-color="#6C5CFF"/>
      <stop offset="0.5" stop-color="#18C8B9"/>
      <stop offset="1" stop-color="#FF6FAE"/>
    </linearGradient>
    <filter id="shadow" x="0" y="0" width="1200" height="720" filterUnits="userSpaceOnUse" color-interpolation-filters="sRGB">
      <feDropShadow dx="0" dy="26" stdDeviation="34" flood-color="#423A8E" flood-opacity="0.16"/>
    </filter>
    <radialGradient id="glow" cx="0" cy="0" r="1" gradientUnits="userSpaceOnUse" gradientTransform="translate(780 220) rotate(126) scale(520 450)">
      <stop stop-color="#6C5CFF" stop-opacity="0.55"/>
      <stop offset="0.45" stop-color="#18C8B9" stop-opacity="0.22"/>
      <stop offset="1" stop-color="#FF6FAE" stop-opacity="0"/>
    </radialGradient>
  </defs>
  <rect width="1200" height="720" rx="64" fill="url(#bg)"/>
  <rect width="1200" height="720" rx="64" fill="url(#glow)"/>
  <circle cx="188" cy="128" r="86" fill="#fff" fill-opacity="0.55"/>
  <circle cx="1004" cy="112" r="128" fill="#fff" fill-opacity="0.45"/>
  <circle cx="1028" cy="560" r="94" fill="#FF6FAE" fill-opacity="0.12"/>
  <g filter="url(#shadow)">
    <rect x="128" y="126" width="944" height="468" rx="46" fill="#fff" fill-opacity="0.76"/>
    <rect x="128.5" y="126.5" width="943" height="467" rx="45.5" stroke="#fff" stroke-opacity="0.75"/>
  </g>
  <g transform="translate(190 190)">
    <rect x="0" y="0" width="288" height="338" rx="34" fill="#ffffff" stroke="#E5E8F4" stroke-width="2"/>
    <rect x="30" y="32" width="228" height="104" rx="26" fill="#F5F3FF"/>
    <circle cx="86" cy="84" r="31" fill="url(#a)"/>
    <circle cx="86" cy="84" r="22" fill="#fff" fill-opacity="0.56"/>
    <rect x="132" y="62" width="88" height="14" rx="7" fill="#262A43"/>
    <rect x="132" y="88" width="66" height="10" rx="5" fill="#9BA3B7"/>
    <rect x="30" y="166" width="228" height="54" rx="18" fill="#F8FAFF" stroke="#E8EBF5"/>
    <rect x="30" y="236" width="228" height="54" rx="18" fill="#F8FAFF" stroke="#E8EBF5"/>
    <circle cx="62" cy="193" r="16" fill="#18C8B9" fill-opacity="0.2"/>
    <circle cx="62" cy="263" r="16" fill="#FF6FAE" fill-opacity="0.2"/>
    <rect x="94" y="185" width="108" height="10" rx="5" fill="#2C3048"/>
    <rect x="94" y="255" width="86" height="10" rx="5" fill="#2C3048"/>
    <rect x="94" y="203" width="76" height="8" rx="4" fill="#A5ABC0"/>
    <rect x="94" y="273" width="104" height="8" rx="4" fill="#A5ABC0"/>
  </g>
  <g transform="translate(540 176)">
    <path d="M92 74C92 33.13 125.13 0 166 0H328C368.87 0 402 33.13 402 74V314C402 354.87 368.87 388 328 388H166C125.13 388 92 354.87 92 314V74Z" fill="url(#a)" fill-opacity="0.12"/>
    <rect x="126" y="36" width="424" height="86" rx="31" fill="#fff" stroke="#E6E9F5" stroke-width="2"/>
    <rect x="126" y="151" width="352" height="86" rx="31" fill="#fff" stroke="#E6E9F5" stroke-width="2"/>
    <rect x="126" y="266" width="424" height="86" rx="31" fill="#fff" stroke="#E6E9F5" stroke-width="2"/>
    <circle cx="174" cy="79" r="25" fill="#6C5CFF" fill-opacity="0.18"/>
    <circle cx="174" cy="194" r="25" fill="#18C8B9" fill-opacity="0.18"/>
    <circle cx="174" cy="309" r="25" fill="#FF6FAE" fill-opacity="0.18"/>
    <rect x="218" y="65" width="154" height="14" rx="7" fill="#262A43"/>
    <rect x="218" y="180" width="126" height="14" rx="7" fill="#262A43"/>
    <rect x="218" y="295" width="172" height="14" rx="7" fill="#262A43"/>
    <rect x="218" y="91" width="238" height="9" rx="4.5" fill="#A5ABC0"/>
    <rect x="218" y="206" width="188" height="9" rx="4.5" fill="#A5ABC0"/>
    <rect x="218" y="321" width="220" height="9" rx="4.5" fill="#A5ABC0"/>
  </g>
  <path d="M184 622C322 570 458 622 594 612C734 602 816 542 1014 590" stroke="url(#a)" stroke-width="8" stroke-linecap="round" opacity="0.4"/>
  <text x="190" y="92" fill="#686F86" font-family="Arial, sans-serif" font-size="28" font-weight="700" letter-spacing="4">WELCOME ME</text>
  <text x="190" y="648" fill="#23263B" font-family="Arial, sans-serif" font-size="42" font-weight="800">Co-design scholar check-in</text>
</svg>
